Coordinates
version=1
nRows=11
nColumns=36
inDegrees=yes

Units are S.I. units (second, meters, Newtons, ...)
If the header above contains a line with 'inDegrees', this indicates whether rotational values are in degrees (yes) or radians (no).

endheader
time	pelvis_tilt	pelvis_list	pelvis_rotation	pelvis_tx	pelvis_ty	pelvis_tz	hip_flexion_r	hip_adduction_r	hip_rotation_r	knee_angle_r	knee_angle_r_beta	ankle_angle_r	subtalar_angle_r	mtp_angle_r	hip_flexion_l	hip_adduction_l	hip_rotation_l	knee_angle_l	knee_angle_l_beta	ankle_angle_l	subtalar_angle_l	mtp_angle_l	lumbar_extension	lumbar_bending	lumbar_rotation	arm_flex_r	arm_add_r	arm_rot_r	elbow_flex_r	pro_sup_r	arm_flex_l	arm_add_l	arm_rot_l	elbow_flex_l	pro_sup_l
      1.04000000	    -10.49812642	      5.41195278	     10.09692099	     -0.44517486	      1.22531989	     -0.53765490	     34.16599020	    -13.73850758	      0.11041386	     21.58875234	      0.37679481	    -31.95912368	    -13.58833290	     -6.45595857	     40.82402258	     -7.55659126	     -7.28570341	     34.02513728	      0.59385067	    -18.51432605	     13.89092913	     -6.45595857	    -25.49441677	     -6.04187366	      6.50276977	    -42.37020258	    -25.30320532	    -48.66908630	    138.52770858	    112.07590263	     37.09319346	    -42.48419510	     25.23061515	    123.22930943	    102.89331836
      1.05000000	    -10.27676761	      5.72236428	     10.24218624	     -0.43541604	      1.19993430	     -0.53754491	     34.87137124	    -14.17505804	      0.93079814	     23.35938989	      0.40769826	    -33.06976560	    -14.19443211	     -6.50835614	     41.34532125	     -7.22885026	     -7.78932362	     34.32882088	      0.59915095	    -17.64503926	     15.35386183	     -6.50835614	    -25.88888168	     -6.04715070	      7.23047448	    -42.81130227	    -25.33905590	    -49.68504171	    139.14839561	    111.91296716	     38.84587531	    -42.12372170	     26.32081204	    123.28564401	    102.90056850
      1.06000000	    -10.17795167	      6.02911041	     10.32105186	     -0.42631133	      1.17338893	     -0.53740080	     36.07008005	    -14.68503315	      1.31066042	     26.65621531	      0.46523872	    -29.77249825	    -14.73869759	     -6.57653861	     42.19579089	     -6.86118621	     -8.00967137	     35.13271498	      0.61318155	    -16.71415746	     15.92926533	     -6.57653861	    -26.31069757	     -6.08274178	      8.08689016	    -43.40353299	    -25.41721893	    -50.75602438	    139.96146662	    111.35536994	     40.79692833	    -41.73592257	     27.35709805	    123.40639849	    102.55726652
      1.07000000	    -10.10506653	      6.37243395	     10.20750606	     -0.41793401	      1.14602814	     -0.53691672	     37.95145218	    -15.14793959	      1.80514996	     32.44164969	      0.56621360	    -19.67577824	    -14.89019158	     -6.68185698	     43.29085650	     -6.54478982	     -8.08491995	     36.57332128	      0.63832487	    -15.31261796	     15.89324138	     -6.68185698	    -26.80713615	     -6.27037475	      9.06848692	    -43.86383639	    -25.57991950	    -51.83437251	    140.63493253	    110.66733777	     42.81449018	    -41.29838411	     28.34703022	    123.51003200	    102.12757441
      1.08000000	    -10.11557781	      6.70511428	      9.85651621	     -0.41011423	      1.11787165	     -0.53595744	     40.30178700	    -15.35100824	      2.92879773	     39.13464000	      0.68302832	     -7.26800702	    -14.08326822	     -6.75700405	     44.65646169	     -6.41038545	     -8.14667505	     38.49447546	      0.67185534	    -13.55888152	     16.08126285	     -6.75700405	    -27.29884340	     -6.62391794	      9.91459137	    -43.87023421	    -26.12437600	    -52.42723605	    141.19245117	    109.45116342	     44.50401727	    -41.13092763	     28.99707748	    123.99244075	    101.36281272
      1.09000000	    -10.04959051	      6.90812403	      9.24291214	     -0.40315316	      1.09007176	     -0.53511190	     42.37566194	    -15.37414583	      3.76506728	     44.57177372	      0.77792420	      2.69963790	    -12.84050902	     -6.89669022	     46.02519282	     -6.40925539	     -7.96856044	     40.40638399	      0.70522444	    -12.61333592	     15.31690993	     -6.89669022	    -28.03604926	     -6.91928858	     10.95190038	    -43.62727379	    -26.89089809	    -53.53248970	    141.34373633	    111.42795715	     46.11693209	    -40.73318511	     29.22461541	    124.14266479	    104.03577779
      1.10000000	    -10.71610785	      6.85459314	      8.14525394	     -0.39781206	      1.06242422	     -0.53492920	     45.29377955	    -15.21443397	      4.20057973	     48.93398230	      0.85405911	      9.58992503	    -11.53632323	     -6.94124026	     48.22625407	     -6.71297979	     -7.75334367	     42.63251667	      0.74407778	    -11.32096194	     13.09072702	     -6.94124026	    -28.11688276	     -7.17934502	     11.88045061	    -42.64055062	    -28.62704929	    -53.59775838	    141.29717145	    110.42155238	     46.43653939	    -40.50947274	     28.47203498	    125.10863165	    103.57820430
      1.11000000	    -11.97494229	      6.74706777	      6.55387338	     -0.39406323	      1.03560068	     -0.53557406	     49.67016490	    -14.82007508	      4.84505184	     53.83710624	      0.93963476	     14.00770502	     -9.89478094	     -6.98802026	     51.13211174	     -7.26754542	     -7.62916276	     46.23085659	      0.80688066	     -6.94386029	      8.99441319	     -6.98802026	    -27.73225744	     -7.56165317	     12.94044094	    -41.07408917	    -30.98792113	    -53.19687361	    140.88697140	    109.51640631	     46.01107488	    -40.07464649	     27.10589688	    126.18243674	    103.23213649
      1.12000000	    -13.15901814	      6.57353050	      4.68908454	     -0.39059220	      1.01024410	     -0.53603076	     54.93575105	    -13.89182498	      5.83478234	     59.87789926	      1.04506649	     15.62513623	     -8.63078594	     -7.10464538	     54.09636059	     -8.18636835	     -7.52320920	     51.37911810	      0.89673478	      0.75739055	      4.64441564	     -7.10464538	    -27.52429639	     -7.99508752	     13.92568101	    -38.73234733	    -33.66321603	    -52.27562396	    139.91776620	    110.54297737	     45.24978309	    -39.69890178	     25.16546546	    126.95712359	    106.19600334
      1.13000000	    -13.93616486	      6.11174033	      2.88735087	     -0.38685242	      0.98643535	     -0.53577062	     59.81397402	    -12.56740352	      6.34183581	     65.94187046	      1.15090275	     15.53989953	     -7.98090445	     -7.13021102	     56.76390477	     -9.45228860	     -7.08265987	     56.75767966	      0.99060839	      8.24692337	      1.47449983	     -7.13021102	    -27.83915263	     -8.16111114	     15.09786043	    -36.30048777	    -36.02020470	    -51.41817553	    139.03998713	    109.50556273	     44.94062428	    -39.11946307	     23.93043456	    127.76395283	    105.51890058
      1.14000000	    -14.63136531	      5.33019773	      1.31751221	     -0.38334326	      0.96407803	     -0.53534832	     63.85627958	    -11.25713334	      6.01144042	     70.97963062	      1.23882826	     15.24168118	     -7.70648523	     -7.18744175	     59.37715979	    -10.81416088	     -6.01296069	     61.24634416	      1.06895036	     13.42139664	     -0.87810840	     -7.18744175	    -28.36127242	     -7.95388673	     15.40356910	    -32.34333641	    -38.95594939	    -48.90695871	    137.74350561	    108.12011029	     43.88151554	    -39.15543787	     21.84304599	    128.97187761	    104.71574105
